<svg id="Layer_1" data-name="Layer 1" xmlns="http://www.w3.org/2000/svg" viewBox="0 0 150 150"><defs><style>.cls-1{fill:#032845;}.cls-2{fill:#04284a;}.cls-3{fill:#c7a55e;}.cls-4{fill:#fff;}</style></defs><path class="cls-1" d="M69.22055,52.35183H62.2295a.56659.56659,0,0,0-.56228.56228v77.69531a13.04028,13.04028,0,0,1-13.04293,13.04294H41.071a.27212.27212,0,0,0-.27244.27243v3.5129a.27216.27216,0,0,0,.27244.27247H69.78283V52.91411A.56659.56659,0,0,0,69.22055,52.35183Z"/><path class="cls-2" d="M108.929,143.65236h-7.55332a13.04028,13.04028,0,0,1-13.04293-13.04294V52.91411a.56659.56659,0,0,0-.56228-.56228H80.77945a.56659.56659,0,0,0-.56228.56228v94.79605H108.929a.27216.27216,0,0,0,.27244-.27247v-3.5129A.27212.27212,0,0,0,108.929,143.65236Z"/><path class="cls-3" d="M77.626,52.35183H72.374a.56658.56658,0,0,0-.56228.56228V148h6.37654V52.91411A.56658.56658,0,0,0,77.626,52.35183Z"/><rect class="cls-1" x="34.05968" y="41.3378" width="81.88063" height="8.1156" rx="0.57834"/><path class="cls-1" d="M55.19151,88.60515h-.29865L40.35851,49.07967H38.34L23.80564,88.60515H23.507a.52593.52593,0,0,0-.4194.84344A20.44761,20.44761,0,0,0,39.34934,96.9212,20.44757,20.44757,0,0,0,55.611,89.44859.52593.52593,0,0,0,55.19151,88.60515Zm-1.4655,0H39.89691V50.99692ZM38.80165,50.99692V88.60515H24.97249Z"/><path class="cls-1" d="M126.49288,88.60515h-.29866L111.65987,49.07967h-2.01846L95.107,88.60515h-.29865a.52593.52593,0,0,0-.4194.84344,21.4305,21.4305,0,0,0,32.52345,0A.52593.52593,0,0,0,126.49288,88.60515Zm-1.46551,0h-13.8291V50.99692ZM110.103,50.99692V88.60515H96.27385Z"/><path class="cls-4" d="M119.69373,22.31935l-41.69-19.6226a7.39,7.39,0,0,0-6.28071.00739L30.29642,22.32182a3.77148,3.77148,0,0,0-.01477,6.84205L71.691,49.01544a7.36473,7.36473,0,0,0,6.34227.00739l41.6777-19.854a3.771,3.771,0,0,0-.01723-6.84945Zm-.97991,4.75423L77.03613,46.93008a5.05737,5.05737,0,0,1-4.34308-.00493l-41.40934-19.854a1.45226,1.45226,0,0,1,.00493-2.65409L72.7152,4.80182a5.05689,5.05689,0,0,1,4.30123-.00493l41.69,19.62014A1.45165,1.45165,0,0,1,118.71382,27.07358Z"/><path class="cls-3" d="M115.93087,39.87645l-2.35553-5.50266a1.47,1.47,0,0,0,.96746-1.35449,1.4935,1.4935,0,0,0-1.23333-1.43215V25.26644h-.67272v6.32071a1.4935,1.4935,0,0,0-1.23333,1.43215,1.47,1.47,0,0,0,.96745,1.35449l-2.35553,5.50266a.11714.11714,0,0,0,.10958.16234h5.69637A.11714.11714,0,0,0,115.93087,39.87645Z"/><path class="cls-1" d="M118.71382,27.07358,77.03613,46.93008a5.05737,5.05737,0,0,1-4.34308-.00493l-41.40934-19.854a1.45226,1.45226,0,0,1,.00493-2.65409L72.7152,4.80182a5.05689,5.05689,0,0,1,4.30123-.00493l41.69,19.62014A1.45165,1.45165,0,0,1,118.71382,27.07358Z"/><path class="cls-4" d="M59.45915,26.51747v-2.0122a11.06063,11.06063,0,0,0,2.48631-.199,2.08572,2.08572,0,0,0,1.21089-.78942,2.46076,2.46076,0,0,0,.43307-1.49167,2.874,2.874,0,0,0-.638-1.8721,2.29284,2.29284,0,0,0-1.88907-.78376,2.37461,2.37461,0,0,0-2.01249.82481,4.2761,4.2761,0,0,0-.69007,2.46281H56.10162q0-2.80813,1.38637-3.99524a5.83571,5.83571,0,0,1,7.08417.01754A4.10538,4.10538,0,0,1,65.81192,21.756a3.78187,3.78187,0,0,1-.70762,2.32808,4.11382,4.11382,0,0,1-1.597,1.34534A3.76672,3.76672,0,0,1,66.549,29.31372a4.32361,4.32361,0,0,1-1.66716,3.71446,6.39538,6.39538,0,0,1-3.91345,1.2341,5.41607,5.41607,0,0,1-4.24065-1.53244,6.11582,6.11582,0,0,1-1.37449-4.23527h2.15231a4.12629,4.12629,0,0,0,1.02351,2.8605,3.42592,3.42592,0,0,0,2.5684.98869,3.15832,3.15832,0,0,0,2.29893-.8132,2.74451,2.74451,0,0,0,.83612-2.05324,2.67865,2.67865,0,0,0-.98274-2.135,4.79326,4.79326,0,0,0-3.13506-.83642Q59.83363,26.50586,59.45915,26.51747Z"/><path class="cls-4" d="M69.68744,31.96929V19.7673H67.63986V17.7316h5.81441a15.07432,15.07432,0,0,1,3.83758.36259,3.81606,3.81606,0,0,1,2.13476,1.64367,5.29612,5.29612,0,0,1,.85991,3.02439,5.39175,5.39175,0,0,1-.56723,2.49763,4.04606,4.04606,0,0,1-1.40393,1.63206,5.14383,5.14383,0,0,1-1.88341.70791,20.20353,20.20353,0,0,1-3.16506.18115H72.14431v4.18829h2.10532V34.005H67.63986V31.96929Zm2.45687-6.15378h1.40336a5.85723,5.85723,0,0,0,3.323-.68442,2.82074,2.82074,0,0,0,.92387-2.41583,3.18356,3.18356,0,0,0-.49137-1.8251,2.148,2.148,0,0,0-1.21655-.92416,10.2689,10.2689,0,0,0-2.42178-.1987H72.14431Z"/><path class="cls-4" d="M82.36014,24.31817l-.63176-3.46311a13.68348,13.68348,0,0,1-.26947-1.87181q0-1.50894,1.135-1.50922a1.13741,1.13741,0,0,1,.88878.36287,1.262,1.262,0,0,1,.32777.87745,16.59083,16.59083,0,0,1-.304,2.1526l-.63176,3.45122Z"/><path class="cls-4" d="M85.34575,34.005V30.121h1.98871v.3742a1.84876,1.84876,0,0,0,.8599,1.31052,3.08992,3.08992,0,0,0,1.78435.51458,3.4095,3.4095,0,0,0,1.71981-.37419,1.15539,1.15539,0,0,0,.64309-1.04134,1.01586,1.01586,0,0,0-.53213-.94765,7.22453,7.22453,0,0,0-2.11212-.55987,6.80363,6.80363,0,0,1-3.34-1.27911,2.91292,2.91292,0,0,1-.99973-2.28874,3.02717,3.02717,0,0,1,1.088-2.37054,4.1895,4.1895,0,0,1,2.86616-.95416,5.48887,5.48887,0,0,1,2.76087.66007v-.48458H94.0501v3.75551H92.07271v-.69036a2.93038,2.93038,0,0,0-2.62047-1.392,2.54461,2.54461,0,0,0-1.44469.38014,1.16523,1.16523,0,0,0-.5678,1.0119.88528.88528,0,0,0,.52081.8834,10.39005,10.39005,0,0,0,2.24063.50751,11.6942,11.6942,0,0,1,2.492.60176,3.11973,3.11973,0,0,1,1.3977,1.14692,3.19627,3.19627,0,0,1,.55591,1.86643,3.00052,3.00052,0,0,1-1.21089,2.51036,5.01145,5.01145,0,0,1-3.14129.93039,4.95508,4.95508,0,0,1-2.96013-.82368V34.005Z"/></svg>